<svg width="100%" height="42.33" viewBox="0 0 106 16" fill="none" xmlns="http://www.w3.org/2000/svg">
<path fill-rule="evenodd" clip-rule="evenodd" d="M8.28799 6.77831C5.16419 6.34142 3.20629 6.175 3.20629 4.59362C3.20629 3.47 3.97753 2.49207 7.22595 2.49207C10.329 2.49207 11.4326 3.61568 11.5586 4.6769H14.1825C14.1825 2.5961 12.2869 0.328125 7.28827 0.328125C2.47795 0.328125 0.623885 2.24236 0.623885 4.78093C0.623885 7.15294 2.2481 8.27655 5.74714 8.83835C9.80836 9.50419 12.2246 9.35852 12.2246 11.1063C12.2246 12.6668 10.5173 13.3327 7.80891 13.3327C4.66433 13.3327 2.95704 12.3756 2.87396 10.8563H0.124023C0.124023 13.4781 2.29103 15.4963 7.72583 15.4963C12.8283 15.4963 14.8901 13.5405 14.8901 10.794C14.8901 7.96459 12.4115 7.34025 8.28799 6.77831ZM32.6885 0.328125C28.1274 0.328125 24.2753 2.86656 24.2753 7.90192C24.2753 12.9373 28.1274 15.4969 32.6885 15.4969C37.2288 15.4969 41.081 12.9376 41.081 7.90192C41.081 2.86628 37.2288 0.328269 32.6885 0.328269V0.328125ZM32.6885 13.3535C28.9818 13.3535 26.92 11.148 26.92 7.90192C26.92 4.6769 28.9818 2.47132 32.6885 2.47132C36.3745 2.47132 38.4363 4.6769 38.4363 7.90192C38.4363 11.1481 36.3745 13.3537 32.6885 13.3537V13.3535ZM66.3372 0.619475L60.9426 12.9165L55.5493 0.619475H51.5089V15.1846H54.0705V2.67952L59.569 15.1846H62.3383L67.8368 2.67952V15.1846H70.3985V0.61961L66.3372 0.619475ZM94.0513 15.1845H96.822L90.0745 0.61961H86.7417L79.9942 15.1846H82.7635L84.2215 11.9387H92.5724L94.0513 15.1845ZM85.2005 9.77479L88.4074 2.63788L91.6157 9.77479H85.2005Z" fill="#1C1C1C"/>
<path d="M104.175 5.27777C104.281 5.20693 104.405 5.16906 104.533 5.16895C104.704 5.1691 104.868 5.23699 104.989 5.35774C105.11 5.47849 105.178 5.64224 105.178 5.81307C105.178 5.94044 105.14 6.06495 105.07 6.17087C104.999 6.27678 104.898 6.35933 104.78 6.4081C104.663 6.45687 104.533 6.46966 104.408 6.44486C104.283 6.42005 104.168 6.35876 104.078 6.26873C103.988 6.1787 103.926 6.06398 103.901 5.93907C103.876 5.81416 103.889 5.68466 103.938 5.56696C103.986 5.44925 104.069 5.34862 104.175 5.27777Z" fill="#0F4DFF"/>
<path d="M103.227 6.9123C103.334 6.84132 103.459 6.80349 103.587 6.8036C103.759 6.80374 103.923 6.87194 104.044 6.99318C104.166 7.11443 104.234 7.27881 104.234 7.45021C104.234 7.57812 104.196 7.70316 104.125 7.8095C104.054 7.91585 103.952 7.99873 103.834 8.04765C103.716 8.09657 103.586 8.10934 103.46 8.08435C103.335 8.05935 103.219 7.99772 103.129 7.90723C103.038 7.81674 102.977 7.70148 102.952 7.57601C102.927 7.45054 102.94 7.32052 102.989 7.20237C103.038 7.08423 103.121 6.98328 103.227 6.9123Z" fill="#0F4DFF"/>
<path d="M101.59 7.85993C101.696 7.78908 101.82 7.75121 101.948 7.7511C102.119 7.75117 102.283 7.81902 102.404 7.93975C102.525 8.06049 102.593 8.22425 102.593 8.39508C102.593 8.52246 102.555 8.64698 102.484 8.75291C102.414 8.85884 102.313 8.94142 102.195 8.99021C102.078 9.039 101.948 9.05181 101.823 9.02702C101.698 9.00222 101.583 8.94094 101.493 8.85092C101.403 8.7609 101.341 8.64618 101.316 8.52127C101.291 8.39635 101.304 8.26686 101.353 8.14914C101.401 8.03143 101.484 7.93078 101.59 7.85993Z" fill="#0F4DFF"/>
<path d="M99.7052 7.86867C99.8096 7.79902 99.9322 7.76186 100.058 7.76189C100.226 7.76193 100.387 7.82864 100.506 7.94736C100.625 8.06609 100.692 8.22712 100.692 8.39508C100.692 8.52045 100.655 8.64304 100.585 8.74734C100.516 8.85163 100.417 8.93294 100.301 8.98099C100.185 9.02904 100.057 9.04166 99.9341 9.01726C99.811 8.99286 99.6979 8.93253 99.6092 8.84391C99.5204 8.75529 99.46 8.64235 99.4355 8.51939C99.4109 8.39643 99.4235 8.26898 99.4715 8.15315C99.5195 8.03731 99.6009 7.93831 99.7052 7.86867Z" fill="#0F4DFF"/>
<path d="M98.0791 6.941C98.1799 6.87366 98.2984 6.83769 98.4196 6.83763C98.5822 6.83789 98.738 6.9025 98.853 7.01731C98.968 7.13213 99.0327 7.28779 99.0331 7.45021C99.0331 7.57135 98.9971 7.68977 98.9298 7.7905C98.8624 7.89124 98.7666 7.96976 98.6546 8.01613C98.5426 8.0625 98.4193 8.07465 98.3004 8.05103C98.1815 8.02742 98.0723 7.9691 97.9865 7.88346C97.9007 7.79782 97.8423 7.68869 97.8186 7.56988C97.7949 7.45107 97.807 7.32792 97.8534 7.21598C97.8998 7.10404 97.9783 7.00834 98.0791 6.941Z" fill="#0F4DFF"/>
<path d="M97.9747 5.47874C98.0409 5.5777 98.0762 5.69405 98.0762 5.81307C98.0761 5.97262 98.0126 6.12557 97.8996 6.23839C97.7867 6.35121 97.6336 6.41467 97.4739 6.41486C97.3548 6.41486 97.2384 6.37956 97.1393 6.31344C97.0402 6.24731 96.963 6.15333 96.9174 6.04337C96.8718 5.9334 96.8599 5.8124 96.8832 5.69566C96.9064 5.57893 96.9638 5.4717 97.048 5.38754C97.1323 5.30338 97.2396 5.24607 97.3564 5.22285C97.4733 5.19963 97.5944 5.21154 97.7044 5.25709C97.8145 5.30264 97.9085 5.37977 97.9747 5.47874Z" fill="#0F4DFF"/>
<path d="M97.8047 4.41711C97.7068 4.48247 97.5917 4.51736 97.4739 4.51736C97.316 4.51736 97.1646 4.45468 97.0529 4.34312C96.9413 4.23156 96.8785 4.08026 96.8785 3.92249C96.8785 3.80484 96.9134 3.68982 96.9789 3.592C97.0443 3.49417 97.1373 3.41792 97.2461 3.3729C97.3549 3.32788 97.4746 3.3161 97.5901 3.33905C97.7056 3.362 97.8117 3.41866 97.8949 3.50185C97.9782 3.58505 98.0349 3.69105 98.0579 3.80644C98.0809 3.92184 98.0691 4.04144 98.024 4.15013C97.979 4.25883 97.9026 4.35174 97.8047 4.41711Z" fill="#0F4DFF"/>
<path d="M98.7451 2.77199C98.6488 2.83644 98.5355 2.87093 98.4196 2.8711C98.264 2.87114 98.1147 2.80954 98.0046 2.69962C97.8945 2.58969 97.8326 2.44059 97.8325 2.28508C97.8326 2.16928 97.867 2.05609 97.9314 1.95982C97.9958 1.86355 98.0874 1.78852 98.1945 1.7442C98.3015 1.69989 98.4194 1.68828 98.5331 1.71085C98.6467 1.73341 98.7512 1.78914 98.8332 1.87098C98.9152 1.95283 98.9711 2.05712 98.9938 2.17068C99.0164 2.28424 99.0049 2.40197 98.9607 2.509C98.9164 2.61603 98.8414 2.70755 98.7451 2.77199Z" fill="#0F4DFF"/>
<path d="M100.388 1.83496C100.291 1.90033 100.175 1.93521 100.058 1.93521C99.8998 1.935 99.7485 1.87237 99.6369 1.76083C99.5253 1.64928 99.4625 1.49807 99.4623 1.34035C99.4623 1.22269 99.4972 1.10768 99.5626 1.00985C99.6281 0.912026 99.7211 0.835779 99.8299 0.790755C99.9387 0.74573 100.058 0.733951 100.174 0.756904C100.289 0.779857 100.395 0.836513 100.479 0.919707C100.562 1.0029 100.619 1.1089 100.642 1.22429C100.665 1.33968 100.653 1.45929 100.608 1.56799C100.563 1.67669 100.486 1.7696 100.388 1.83496Z" fill="#0F4DFF"/>
<path d="M102.283 1.84111C102.184 1.90707 102.067 1.94213 101.948 1.94185C101.788 1.9413 101.636 1.8778 101.523 1.76499C101.41 1.65218 101.347 1.4994 101.347 1.34007C101.347 1.22099 101.382 1.10458 101.448 1.00559C101.515 0.906595 101.609 0.829464 101.719 0.783957C101.829 0.738451 101.95 0.726614 102.067 0.749946C102.184 0.773279 102.291 0.830729 102.376 0.915029C102.46 0.999329 102.517 1.10669 102.54 1.22351C102.563 1.34034 102.551 1.46138 102.505 1.57132C102.459 1.68125 102.382 1.77515 102.283 1.84111Z" fill="#0F4DFF"/>
<path d="M103.928 2.79413C103.827 2.86148 103.708 2.89746 103.587 2.89752C103.425 2.89734 103.269 2.83288 103.154 2.71805C103.039 2.60321 102.974 2.44751 102.974 2.28508C102.974 2.16393 103.01 2.04549 103.077 1.94474C103.144 1.84399 103.24 1.76545 103.352 1.71906C103.464 1.67266 103.587 1.6605 103.706 1.6841C103.825 1.7077 103.935 1.766 104.02 1.85164C104.106 1.93728 104.165 2.0464 104.188 2.16521C104.212 2.28403 104.2 2.40719 104.153 2.51914C104.107 2.63109 104.029 2.72678 103.928 2.79413Z" fill="#0F4DFF"/>
<path d="M104.006 4.27356C103.936 4.16953 103.899 4.04722 103.899 3.92208C103.899 3.7542 103.966 3.59346 104.085 3.47477C104.204 3.35609 104.365 3.28925 104.533 3.28888C104.658 3.28902 104.781 3.32625 104.885 3.39587C104.989 3.46548 105.07 3.56436 105.118 3.68001C105.166 3.79565 105.178 3.92287 105.153 4.04559C105.129 4.16831 105.069 4.28103 104.98 4.36949C104.891 4.45794 104.779 4.51817 104.656 4.54256C104.533 4.56696 104.406 4.55443 104.29 4.50655C104.174 4.45867 104.075 4.37759 104.006 4.27356Z" fill="#0F4DFF"/>
<path d="M102.69 5.18928C102.76 5.14151 102.843 5.11563 102.928 5.11486C103.043 5.11497 103.153 5.16037 103.234 5.24098C103.315 5.32158 103.362 5.43102 103.363 5.54552C103.363 5.63049 103.338 5.71356 103.29 5.78425C103.243 5.85495 103.176 5.91011 103.098 5.94278C103.019 5.97546 102.933 5.98419 102.849 5.96787C102.766 5.95156 102.689 5.91092 102.629 5.85109C102.568 5.79127 102.527 5.71492 102.51 5.63167C102.493 5.54842 102.501 5.46199 102.533 5.38326C102.565 5.30454 102.619 5.23704 102.69 5.18928Z" fill="#0F4DFF"/>
<path d="M101.783 6.27276C101.851 6.22588 101.931 6.20019 102.014 6.19891C102.126 6.1981 102.234 6.24195 102.314 6.3206C102.394 6.39925 102.44 6.50639 102.441 6.61849C102.441 6.7012 102.416 6.78206 102.37 6.85091C102.324 6.91977 102.259 6.97354 102.183 7.00548C102.107 7.03742 102.022 7.04611 101.941 7.03044C101.86 7.01477 101.785 6.97544 101.726 6.91741C101.667 6.85938 101.627 6.78522 101.61 6.70426C101.593 6.6233 101.6 6.53915 101.631 6.46238C101.662 6.3856 101.715 6.31963 101.783 6.27276Z" fill="#0F4DFF"/>
<path d="M100.379 6.50821C100.449 6.46043 100.531 6.43435 100.616 6.43325C100.73 6.43263 100.84 6.47755 100.922 6.55793C101.003 6.6383 101.05 6.7477 101.051 6.86212C101.05 6.9467 101.025 7.02939 100.979 7.09979C100.932 7.17019 100.865 7.22516 100.787 7.25777C100.709 7.29039 100.623 7.2992 100.54 7.2831C100.456 7.26699 100.38 7.22669 100.32 7.16727C100.259 7.10784 100.218 7.03195 100.201 6.94912C100.184 6.8663 100.191 6.78025 100.223 6.7018C100.255 6.62334 100.309 6.55599 100.379 6.50821Z" fill="#0F4DFF"/>
<path d="M99.1573 5.81912C99.2247 5.77269 99.3043 5.7472 99.3861 5.74584C99.4411 5.74532 99.4957 5.75579 99.5467 5.77638C99.5977 5.79696 99.6442 5.82739 99.6834 5.86592C99.7226 5.90446 99.7539 5.95034 99.7753 6.00095C99.7968 6.05156 99.808 6.1059 99.8085 6.16086C99.8084 6.24265 99.7843 6.32261 99.7389 6.3907C99.6936 6.45879 99.6291 6.51198 99.5536 6.54359C99.4781 6.57519 99.3949 6.58381 99.3145 6.56835C99.2341 6.55288 99.1601 6.51404 99.1018 6.45669C99.0434 6.39933 99.0033 6.32603 98.9865 6.24598C98.9697 6.16594 98.977 6.08272 99.0073 6.00677C99.0377 5.93083 99.0899 5.86554 99.1573 5.81912Z" fill="#0F4DFF"/>
<path d="M99.2365 4.62027C99.28 4.68692 99.3027 4.76498 99.3017 4.84454C99.3013 4.89688 99.2907 4.94878 99.2703 4.997C99.2499 5.04523 99.2203 5.08897 99.183 5.12574C99.1457 5.1625 99.1015 5.19157 99.053 5.21128C99.0044 5.23099 98.9525 5.24096 98.9001 5.24061C98.8205 5.24061 98.7427 5.21694 98.6765 5.17263C98.6104 5.12831 98.5589 5.06535 98.5287 4.99174C98.4984 4.91814 98.4908 4.83721 98.5067 4.75925C98.5226 4.68129 98.5614 4.60982 98.618 4.55392C98.6747 4.49802 98.7467 4.46022 98.825 4.44533C98.9032 4.43043 98.9841 4.43911 99.0574 4.47026C99.1307 4.50141 99.193 4.55363 99.2365 4.62027Z" fill="#0F4DFF"/>
<path d="M99.6047 3.85486C99.5403 3.89898 99.4642 3.92309 99.3861 3.92416C99.2803 3.92475 99.1786 3.88348 99.1033 3.80919C99.028 3.73491 98.9853 3.6338 98.9846 3.52808C98.9847 3.45004 99.0078 3.37377 99.0511 3.30884C99.0945 3.24391 99.156 3.19322 99.2281 3.16315C99.3002 3.13308 99.3796 3.12498 99.4562 3.13985C99.5329 3.15472 99.6035 3.19191 99.6591 3.24673C99.7147 3.30156 99.7528 3.37158 99.7686 3.44799C99.7845 3.5244 99.7774 3.60379 99.7483 3.67618C99.7191 3.74857 99.6691 3.81074 99.6047 3.85486Z" fill="#0F4DFF"/>
<path d="M100.834 3.15439C100.77 3.19854 100.694 3.22266 100.616 3.22372C100.51 3.22442 100.408 3.1833 100.333 3.10914C100.258 3.03497 100.215 2.93398 100.214 2.82835C100.214 2.75028 100.237 2.67393 100.28 2.60891C100.324 2.54389 100.385 2.4931 100.457 2.46293C100.529 2.43276 100.609 2.42455 100.685 2.43935C100.762 2.45414 100.833 2.49127 100.888 2.54607C100.944 2.60086 100.982 2.67088 100.998 2.74731C101.014 2.82373 101.007 2.90316 100.978 2.9756C100.949 3.04803 100.899 3.11023 100.834 3.15439Z" fill="#0F4DFF"/>
<path d="M102.244 3.41421C102.176 3.46047 102.096 3.48565 102.014 3.48658V3.48727C101.959 3.48756 101.905 3.47701 101.854 3.45623C101.803 3.43545 101.756 3.40485 101.717 3.36616C101.678 3.32748 101.647 3.28147 101.626 3.23078C101.605 3.18008 101.594 3.1257 101.593 3.07072C101.593 2.98868 101.618 2.90846 101.663 2.84018C101.709 2.7719 101.773 2.7186 101.849 2.68699C101.925 2.65538 102.008 2.64688 102.089 2.66255C102.17 2.67822 102.244 2.71735 102.302 2.77504C102.361 2.83273 102.401 2.90639 102.417 2.98674C102.434 3.0671 102.426 3.15056 102.395 3.22663C102.365 3.30269 102.312 3.36796 102.244 3.41421Z" fill="#0F4DFF"/>
<path d="M103.158 4.4881C103.09 4.53464 103.01 4.56012 102.928 4.56135V4.56204C102.873 4.56241 102.818 4.55187 102.767 4.53103C102.715 4.51019 102.669 4.47945 102.629 4.44058C102.59 4.40171 102.559 4.35547 102.537 4.3045C102.516 4.25354 102.505 4.19885 102.504 4.14357C102.505 4.06137 102.529 3.98104 102.575 3.91268C102.62 3.84432 102.685 3.79097 102.761 3.75933C102.837 3.7277 102.921 3.71918 103.002 3.73486C103.082 3.75053 103.157 3.78969 103.215 3.84743C103.274 3.90517 103.314 3.9789 103.331 4.05938C103.347 4.13986 103.34 4.22349 103.309 4.29977C103.279 4.37604 103.226 4.44156 103.158 4.4881Z" fill="#0F4DFF"/>
<path d="M101.478 5.21253C101.515 5.19661 101.557 5.19204 101.597 5.19938V5.20008C101.654 5.21287 101.703 5.24755 101.735 5.29655C101.766 5.34554 101.776 5.40487 101.764 5.46154C101.753 5.50114 101.731 5.53678 101.701 5.56413C101.67 5.59147 101.632 5.60932 101.591 5.61551C101.551 5.62169 101.509 5.61593 101.472 5.59894C101.435 5.58195 101.403 5.55445 101.381 5.51981C101.359 5.48518 101.348 5.44491 101.348 5.40392C101.349 5.36294 101.362 5.32301 101.385 5.28902C101.407 5.25503 101.44 5.22845 101.478 5.21253Z" fill="#0F4DFF"/>
<path d="M100.69 5.3972C100.727 5.38141 100.768 5.37684 100.808 5.38407V5.38477C100.836 5.39092 100.862 5.4025 100.886 5.41884C100.909 5.43517 100.929 5.45595 100.944 5.47998C100.96 5.504 100.97 5.53081 100.975 5.55887C100.98 5.58692 100.979 5.61567 100.973 5.64346C100.963 5.68268 100.941 5.718 100.911 5.74511C100.88 5.77222 100.843 5.78994 100.803 5.7961C100.763 5.80226 100.721 5.7966 100.684 5.77981C100.647 5.76302 100.616 5.73584 100.594 5.70156C100.573 5.66729 100.561 5.62743 100.562 5.58684C100.562 5.54625 100.575 5.50671 100.597 5.47303C100.62 5.43935 100.652 5.413 100.69 5.3972Z" fill="#0F4DFF"/>
<path d="M100.102 4.8595C100.137 4.84488 100.175 4.8406 100.211 4.84717V4.84786C100.263 4.85947 100.308 4.89108 100.337 4.9358C100.365 4.98051 100.375 5.03469 100.364 5.0865C100.354 5.12262 100.334 5.15515 100.306 5.18012C100.278 5.20508 100.244 5.2214 100.207 5.22708C100.17 5.23276 100.132 5.22755 100.098 5.2121C100.064 5.19665 100.035 5.17162 100.015 5.14007C99.9948 5.10851 99.9843 5.0718 99.9848 5.03441C99.9852 4.99702 99.9966 4.96057 100.017 4.92951C100.038 4.89845 100.068 4.87412 100.102 4.8595Z" fill="#0F4DFF"/>
<path d="M100.417 4.46569C100.383 4.47957 100.347 4.48338 100.311 4.47669V4.47738C100.261 4.46584 100.218 4.43496 100.19 4.39149C100.163 4.34802 100.154 4.29553 100.166 4.24552C100.175 4.21057 100.195 4.17912 100.222 4.15502C100.249 4.13091 100.282 4.11521 100.318 4.10983C100.354 4.10445 100.39 4.10963 100.423 4.12473C100.456 4.13983 100.484 4.16419 100.503 4.19484C100.523 4.22548 100.532 4.26108 100.532 4.29727C100.531 4.33346 100.52 4.36867 100.499 4.39858C100.479 4.4285 100.45 4.45182 100.417 4.46569Z" fill="#0F4DFF"/>
<path d="M101.208 4.28783C101.174 4.30228 101.136 4.30637 101.099 4.29961V4.30031C101.047 4.28839 101.003 4.25661 100.974 4.21187C100.946 4.16713 100.937 4.11304 100.948 4.06138C100.958 4.0253 100.978 3.9928 101.005 3.96786C101.033 3.94292 101.068 3.92662 101.105 3.92096C101.142 3.91531 101.179 3.92053 101.213 3.936C101.247 3.95147 101.276 3.97652 101.296 4.00807C101.316 4.03962 101.327 4.07631 101.326 4.11364C101.325 4.15098 101.314 4.18734 101.293 4.21828C101.272 4.24921 101.243 4.27339 101.208 4.28783Z" fill="#0F4DFF"/>
<path d="M101.803 4.84795C101.767 4.86289 101.727 4.86704 101.689 4.8599V4.86059C101.662 4.85455 101.637 4.84329 101.614 4.82745C101.592 4.81161 101.573 4.7915 101.559 4.76829C101.544 4.74508 101.534 4.71921 101.53 4.6922C101.525 4.66518 101.526 4.63755 101.532 4.61088C101.543 4.57336 101.563 4.53961 101.593 4.51377C101.622 4.48793 101.658 4.47112 101.696 4.4654C101.735 4.45967 101.774 4.46527 101.809 4.48152C101.845 4.49778 101.875 4.52396 101.895 4.55689C101.916 4.58982 101.927 4.62807 101.926 4.66694C101.925 4.70582 101.913 4.74364 101.891 4.77579C101.869 4.80793 101.838 4.83301 101.803 4.84795Z" fill="#0F4DFF"/>
</svg>
