<svg width="28" height="28" viewBox="0 0 28 28" fill="none" xmlns="http://www.w3.org/2000/svg">
    <path d="M14 14L14.1374 13.5193C13.9628 13.4694 13.7748 13.5181 13.6464 13.6465C13.518 13.7749 13.4694 13.9628 13.5192 14.1374L14 14ZM17.7333 27.0667L17.2526 27.204C17.3107 27.4075 17.4906 27.5523 17.7017 27.5657C17.9129 27.5791 18.1096 27.4581 18.1929 27.2636L17.7333 27.0667ZM27.0667 17.7333L27.2636 18.1929C27.4581 18.1096 27.579 17.9129 27.5657 17.7017C27.5523 17.4906 27.4075 17.3107 27.204 17.2526L27.0667 17.7333ZM20.5333 20.5333L20.3364 20.0738C20.2184 20.1243 20.1243 20.2184 20.0738 20.3364L20.5333 20.5333ZM6.53333 6.53335V6.03335H6.03333V6.53335H6.53333ZM25.2 6.53335H25.7V6.03335H25.2V6.53335ZM6.53333 25.2H6.03333V25.7H6.53333V25.2ZM0 1.43335H1.86667V0.43335H0V1.43335ZM7.46667 1.43335H9.33333V0.43335H7.46667V1.43335ZM14.9333 1.43335H16.8V0.43335H14.9333V1.43335ZM0 8.90002H1.86667V7.90002H0V8.90002ZM0 16.3667H1.86667V15.3667H0V16.3667ZM13.5192 14.1374L17.2526 27.204L18.2141 26.9293L14.4808 13.8627L13.5192 14.1374ZM27.204 17.2526L14.1374 13.5193L13.8626 14.4808L26.9293 18.2141L27.204 17.2526ZM18.1929 27.2636L20.9929 20.7303L20.0738 20.3364L17.2738 26.8697L18.1929 27.2636ZM20.7303 20.9929L27.2636 18.1929L26.8697 17.2738L20.3364 20.0738L20.7303 20.9929ZM6.53333 7.03335H25.2V6.03335H6.53333V7.03335ZM24.7 6.53335V13.0667H25.7V6.53335H24.7ZM6.03333 6.53335V25.2H7.03333V6.53335H6.03333ZM6.53333 25.7H13.0667V24.7H6.53333V25.7Z"
          fill="#21102E"/>
</svg>
