<svg width="218" height="214" viewBox="0 0 218 214" fill="none" xmlns="http://www.w3.org/2000/svg">
<ellipse cx="109" cy="106.556" rx="109" ry="106.556" fill="#151A2E"/>
<path fill-rule="evenodd" clip-rule="evenodd" d="M139.458 84.3333H145.25C151.621 84.3333 156.833 89.5458 156.833 95.9166V153.833C156.833 160.204 151.621 165.417 145.25 165.417H75.7501C69.3792 165.417 64.1667 160.204 64.1667 153.833V95.9166C64.1667 89.5458 69.3792 84.3333 75.7501 84.3333H81.5417V72.75C81.5417 56.765 94.5151 43.7916 110.5 43.7916C126.485 43.7916 139.458 56.765 139.458 72.75V84.3333ZM110.5 55.375C100.886 55.375 93.1251 63.1358 93.1251 72.75V84.3333H127.875V72.75C127.875 63.1358 120.114 55.375 110.5 55.375ZM75.7501 153.833V95.9166H145.25V153.833H75.7501ZM122.083 124.875C122.083 131.246 116.871 136.458 110.5 136.458C104.129 136.458 98.9167 131.246 98.9167 124.875C98.9167 118.504 104.129 113.292 110.5 113.292C116.871 113.292 122.083 118.504 122.083 124.875Z" fill="#9096B4"/>
</svg>
