<svg width="16" height="15" viewBox="0 0 16 15" fill="none" xmlns="http://www.w3.org/2000/svg">
<path d="M11.8128 7.61368L6.19008 10.8155L6.19007 10.8155L6.18556 10.8181L6 10.9264V4.07364L6.18556 4.18189L6.18555 4.18191L6.19008 4.18449L11.8128 7.38632L12.0077 7.5L11.8128 7.61368ZM6.99953 4.91828L6.25 4.48661V5.35156V9.64844V10.5134L6.99953 10.0817L10.73 7.93328L11.4823 7.5L10.73 7.06672L6.99953 4.91828ZM1 7.5C1 3.6404 4.1404 0.5 8 0.5C11.8596 0.5 15 3.6404 15 7.5C15 11.3596 11.8596 14.5 8 14.5C4.1404 14.5 1 11.3596 1 7.5ZM14.75 7.5C14.75 3.76439 11.7356 0.75 8 0.75C4.26439 0.75 1.25 3.76439 1.25 7.5C1.25 11.2356 4.26439 14.25 8 14.25C11.7356 14.25 14.75 11.2356 14.75 7.5Z" fill="white" stroke="black"/>
</svg>
