<svg width="18" height="13" viewBox="0 0 18 13" fill="none" xmlns="http://www.w3.org/2000/svg">
<path d="M17.2033 6.06139C17.2033 6.52281 16.7959 6.90033 16.2979 6.90033H3.07849L7.17561 10.7175C7.53778 11.0531 7.53778 11.5775 7.17561 11.913C6.99452 12.0808 6.76815 12.1647 6.54179 12.1647C6.31543 12.1647 6.06644 12.0808 5.90799 11.913L0.271634 6.66962C-0.0905411 6.33404 -0.0905411 5.8097 0.271634 5.49509L5.90799 0.251681C6.27017 -0.0838972 6.83606 -0.0838972 7.19824 0.251681C7.56041 0.58726 7.56041 1.1116 7.19824 1.44718L3.07849 5.22244H16.2979C16.7959 5.22244 17.2033 5.59997 17.2033 6.06139Z" fill="#D6BBDB"/>
</svg>
