<svg width="100%" height="42.33" viewBox="0 0 106 16" fill="none" xmlns="http://www.w3.org/2000/svg">
<path fill-rule="evenodd" clip-rule="evenodd" d="M8.28799 6.77855C5.16419 6.34167 3.20629 6.17524 3.20629 4.59386C3.20629 3.47025 3.97753 2.49231 7.22595 2.49231C10.329 2.49231 11.4326 3.61592 11.5586 4.67714H14.1825C14.1825 2.59634 12.2869 0.328369 7.28827 0.328369C2.47795 0.328369 0.623885 2.2426 0.623885 4.78118C0.623885 7.15318 2.2481 8.27679 5.74714 8.8386C9.80836 9.50444 12.2246 9.35877 12.2246 11.1066C12.2246 12.6671 10.5173 13.3329 7.80891 13.3329C4.66433 13.3329 2.95704 12.3759 2.87396 10.8566H0.124023C0.124023 13.4783 2.29103 15.4966 7.72583 15.4966C12.8283 15.4966 14.8901 13.5407 14.8901 10.7942C14.8901 7.96484 12.4115 7.3405 8.28799 6.77855ZM32.6885 0.328369C28.1274 0.328369 24.2753 2.8668 24.2753 7.90216C24.2753 12.9375 28.1274 15.4971 32.6885 15.4971C37.2288 15.4971 41.081 12.9378 41.081 7.90216C41.081 2.86653 37.2288 0.328513 32.6885 0.328513V0.328369ZM32.6885 13.3538C28.9818 13.3538 26.92 11.1482 26.92 7.90216C26.92 4.67714 28.9818 2.47156 32.6885 2.47156C36.3745 2.47156 38.4363 4.67714 38.4363 7.90216C38.4363 11.1484 36.3745 13.3539 32.6885 13.3539V13.3538ZM66.3372 0.619719L60.9426 12.9168L55.5493 0.619719H51.5089V15.1849H54.0705V2.67976L59.569 15.1849H62.3383L67.8368 2.67976V15.1849H70.3985V0.619854L66.3372 0.619719ZM94.0513 15.1848H96.822L90.0745 0.619854H86.7417L79.9942 15.1849H82.7635L84.2215 11.939H92.5724L94.0513 15.1848ZM85.2005 9.77504L88.4074 2.63812L91.6157 9.77504H85.2005Z" fill="white"/>
<path d="M104.175 5.2779C104.281 5.20705 104.405 5.16918 104.533 5.16907C104.704 5.16922 104.868 5.23711 104.989 5.35786C105.11 5.47861 105.178 5.64236 105.178 5.81319C105.178 5.94057 105.14 6.06508 105.07 6.17099C104.999 6.2769 104.898 6.35945 104.78 6.40822C104.663 6.45699 104.533 6.46979 104.408 6.44498C104.283 6.42017 104.168 6.35888 104.078 6.26885C103.988 6.17882 103.926 6.0641 103.901 5.93919C103.876 5.81428 103.889 5.68478 103.938 5.56708C103.986 5.44937 104.069 5.34874 104.175 5.2779Z" fill="#0F4DFF"/>
<path d="M103.227 6.91242C103.334 6.84144 103.459 6.80361 103.587 6.80372C103.759 6.80386 103.923 6.87206 104.044 6.9933C104.166 7.11455 104.234 7.27893 104.234 7.45033C104.234 7.57824 104.196 7.70328 104.125 7.80962C104.054 7.91597 103.952 7.99885 103.834 8.04777C103.716 8.0967 103.586 8.10946 103.46 8.08447C103.335 8.05947 103.219 7.99784 103.129 7.90735C103.038 7.81687 102.977 7.7016 102.952 7.57613C102.927 7.45066 102.94 7.32064 102.989 7.2025C103.038 7.08435 103.121 6.98341 103.227 6.91242Z" fill="#0F4DFF"/>
<path d="M101.59 7.86005C101.696 7.7892 101.82 7.75133 101.948 7.75122C102.119 7.75129 102.283 7.81914 102.404 7.93988C102.525 8.06061 102.593 8.22437 102.593 8.3952C102.593 8.52258 102.555 8.6471 102.484 8.75303C102.414 8.85896 102.313 8.94154 102.195 8.99033C102.078 9.03912 101.948 9.05193 101.823 9.02714C101.698 9.00235 101.583 8.94107 101.493 8.85105C101.403 8.76103 101.341 8.6463 101.316 8.52139C101.291 8.39647 101.304 8.26698 101.353 8.14926C101.401 8.03155 101.484 7.9309 101.59 7.86005Z" fill="#0F4DFF"/>
<path d="M99.7052 7.86879C99.8096 7.79915 99.9322 7.76198 100.058 7.76201C100.226 7.76205 100.387 7.82876 100.506 7.94748C100.625 8.06621 100.692 8.22725 100.692 8.3952C100.692 8.52058 100.655 8.64316 100.585 8.74746C100.516 8.85175 100.417 8.93307 100.301 8.98111C100.185 9.02916 100.057 9.04178 99.9341 9.01738C99.811 8.99298 99.6979 8.93265 99.6092 8.84403C99.5204 8.75541 99.46 8.64247 99.4355 8.51951C99.4109 8.39655 99.4235 8.2691 99.4715 8.15327C99.5195 8.03744 99.6009 7.93843 99.7052 7.86879Z" fill="#0F4DFF"/>
<path d="M98.0791 6.94112C98.1799 6.87378 98.2984 6.83781 98.4196 6.83775C98.5822 6.83801 98.738 6.90262 98.853 7.01744C98.968 7.13225 99.0327 7.28792 99.0331 7.45033C99.0331 7.57147 98.9971 7.68989 98.9298 7.79063C98.8624 7.89136 98.7666 7.96988 98.6546 8.01625C98.5426 8.06262 98.4193 8.07477 98.3004 8.05116C98.1815 8.02754 98.0723 7.96923 97.9865 7.88358C97.9007 7.79794 97.8423 7.68881 97.8186 7.57C97.7949 7.45119 97.807 7.32804 97.8534 7.2161C97.8998 7.10416 97.9783 7.00847 98.0791 6.94112Z" fill="#0F4DFF"/>
<path d="M97.9747 5.47886C98.0409 5.57782 98.0762 5.69417 98.0762 5.81319C98.0761 5.97274 98.0126 6.1257 97.8996 6.23851C97.7867 6.35133 97.6336 6.41479 97.4739 6.41498C97.3548 6.41498 97.2384 6.37969 97.1393 6.31356C97.0402 6.24744 96.963 6.15345 96.9174 6.04349C96.8718 5.93353 96.8599 5.81252 96.8832 5.69579C96.9064 5.57905 96.9638 5.47183 97.048 5.38767C97.1323 5.3035 97.2396 5.24619 97.3564 5.22297C97.4733 5.19975 97.5944 5.21166 97.7044 5.25721C97.8145 5.30276 97.9085 5.37989 97.9747 5.47886Z" fill="#0F4DFF"/>
<path d="M97.8047 4.41723C97.7068 4.48259 97.5917 4.51748 97.4739 4.51748C97.316 4.51748 97.1646 4.45481 97.0529 4.34325C96.9413 4.23169 96.8785 4.08038 96.8785 3.92261C96.8785 3.80496 96.9134 3.68994 96.9789 3.59212C97.0443 3.49429 97.1373 3.41805 97.2461 3.37302C97.3549 3.328 97.4746 3.31622 97.5901 3.33917C97.7056 3.36212 97.8117 3.41878 97.8949 3.50197C97.9782 3.58517 98.0349 3.69117 98.0579 3.80656C98.0809 3.92196 98.0691 4.04156 98.024 4.15026C97.979 4.25896 97.9026 4.35186 97.8047 4.41723Z" fill="#0F4DFF"/>
<path d="M98.7451 2.77212C98.6488 2.83657 98.5355 2.87106 98.4196 2.87122C98.264 2.87126 98.1147 2.80966 98.0046 2.69974C97.8945 2.58982 97.8326 2.44071 97.8325 2.2852C97.8326 2.1694 97.867 2.05621 97.9314 1.95994C97.9958 1.86367 98.0874 1.78864 98.1945 1.74432C98.3015 1.70001 98.4194 1.68841 98.5331 1.71097C98.6467 1.73354 98.7512 1.78926 98.8332 1.87111C98.9152 1.95295 98.9711 2.05724 98.9938 2.1708C99.0164 2.28436 99.0049 2.40209 98.9607 2.50912C98.9164 2.61615 98.8414 2.70767 98.7451 2.77212Z" fill="#0F4DFF"/>
<path d="M100.388 1.83508C100.291 1.90045 100.175 1.93534 100.058 1.93534C99.8998 1.93512 99.7485 1.87249 99.6369 1.76095C99.5253 1.64941 99.4625 1.49819 99.4623 1.34047C99.4623 1.22282 99.4972 1.1078 99.5626 1.00997C99.6281 0.912148 99.7211 0.835901 99.8299 0.790877C99.9387 0.745852 100.058 0.734073 100.174 0.757026C100.289 0.779979 100.395 0.836635 100.479 0.919829C100.562 1.00302 100.619 1.10902 100.642 1.22441C100.665 1.3398 100.653 1.45941 100.608 1.56811C100.563 1.67681 100.486 1.76972 100.388 1.83508Z" fill="#0F4DFF"/>
<path d="M102.283 1.84123C102.184 1.90719 102.067 1.94225 101.948 1.94197C101.788 1.94143 101.636 1.87792 101.523 1.76511C101.41 1.6523 101.347 1.49952 101.347 1.34019C101.347 1.22111 101.382 1.1047 101.448 1.00571C101.515 0.906717 101.609 0.829586 101.719 0.784079C101.829 0.738573 101.95 0.726736 102.067 0.750068C102.184 0.773401 102.291 0.830851 102.376 0.915151C102.46 0.999451 102.517 1.10681 102.54 1.22363C102.563 1.34046 102.551 1.4615 102.505 1.57144C102.459 1.68138 102.382 1.77527 102.283 1.84123Z" fill="#0F4DFF"/>
<path d="M103.928 2.79426C103.827 2.86161 103.708 2.89759 103.587 2.89764C103.425 2.89746 103.269 2.833 103.154 2.71817C103.039 2.60334 102.974 2.44764 102.974 2.2852C102.974 2.16405 103.01 2.04561 103.077 1.94486C103.144 1.84411 103.24 1.76557 103.352 1.71918C103.464 1.67278 103.587 1.66062 103.706 1.68422C103.825 1.70782 103.935 1.76612 104.02 1.85176C104.106 1.9374 104.165 2.04652 104.188 2.16534C104.212 2.28415 104.2 2.40732 104.153 2.51926C104.107 2.63121 104.029 2.72691 103.928 2.79426Z" fill="#0F4DFF"/>
<path d="M104.006 4.27368C103.936 4.16965 103.899 4.04734 103.899 3.9222C103.899 3.75432 103.966 3.59358 104.085 3.4749C104.204 3.35621 104.365 3.28937 104.533 3.28901C104.658 3.28914 104.781 3.32637 104.885 3.39599C104.989 3.46561 105.07 3.56448 105.118 3.68013C105.166 3.79577 105.178 3.923 105.153 4.04572C105.129 4.16844 105.069 4.28115 104.98 4.36961C104.891 4.45806 104.779 4.51829 104.656 4.54269C104.533 4.56708 104.406 4.55456 104.29 4.50667C104.174 4.45879 104.075 4.37771 104.006 4.27368Z" fill="#0F4DFF"/>
<path d="M102.69 5.1894C102.76 5.14164 102.843 5.11575 102.928 5.11498C103.043 5.11509 103.153 5.16049 103.234 5.2411C103.315 5.3217 103.362 5.43114 103.363 5.54564C103.363 5.63062 103.338 5.71368 103.29 5.78438C103.243 5.85507 103.176 5.91023 103.098 5.94291C103.019 5.97558 102.933 5.98431 102.849 5.96799C102.766 5.95168 102.689 5.91104 102.629 5.85122C102.568 5.79139 102.527 5.71504 102.51 5.63179C102.493 5.54854 102.501 5.46211 102.533 5.38338C102.565 5.30466 102.619 5.23716 102.69 5.1894Z" fill="#0F4DFF"/>
<path d="M101.783 6.27288C101.851 6.226 101.931 6.20031 102.014 6.19903C102.126 6.19822 102.234 6.24207 102.314 6.32072C102.394 6.39937 102.44 6.50651 102.441 6.61861C102.441 6.70132 102.416 6.78218 102.37 6.85104C102.324 6.91989 102.259 6.97367 102.183 7.00561C102.107 7.03755 102.022 7.04623 101.941 7.03056C101.86 7.01489 101.785 6.97556 101.726 6.91753C101.667 6.8595 101.627 6.78535 101.61 6.70439C101.593 6.62343 101.6 6.53927 101.631 6.4625C101.662 6.38572 101.715 6.31976 101.783 6.27288Z" fill="#0F4DFF"/>
<path d="M100.379 6.50833C100.449 6.46055 100.531 6.43447 100.616 6.43338C100.73 6.43275 100.84 6.47767 100.922 6.55805C101.003 6.63842 101.05 6.74782 101.051 6.86224C101.05 6.94682 101.025 7.02951 100.979 7.09991C100.932 7.17032 100.865 7.22528 100.787 7.2579C100.709 7.29051 100.623 7.29932 100.54 7.28322C100.456 7.26711 100.38 7.22681 100.32 7.16739C100.259 7.10796 100.218 7.03207 100.201 6.94924C100.184 6.86642 100.191 6.78037 100.223 6.70192C100.255 6.62347 100.309 6.55611 100.379 6.50833Z" fill="#0F4DFF"/>
<path d="M99.1573 5.81924C99.2247 5.77282 99.3043 5.74732 99.3861 5.74596C99.4411 5.74545 99.4957 5.75592 99.5467 5.7765C99.5977 5.79708 99.6442 5.82751 99.6834 5.86604C99.7226 5.90458 99.7539 5.95047 99.7753 6.00108C99.7968 6.05168 99.808 6.10602 99.8085 6.16098C99.8084 6.24277 99.7843 6.32273 99.7389 6.39082C99.6936 6.45891 99.6291 6.51211 99.5536 6.54371C99.4781 6.57532 99.3949 6.58393 99.3145 6.56847C99.2341 6.55301 99.1601 6.51416 99.1018 6.45681C99.0434 6.39946 99.0033 6.32615 98.9865 6.2461C98.9697 6.16606 98.977 6.08284 99.0073 6.00689C99.0377 5.93095 99.0899 5.86566 99.1573 5.81924Z" fill="#0F4DFF"/>
<path d="M99.2365 4.62039C99.28 4.68704 99.3027 4.7651 99.3017 4.84466C99.3013 4.897 99.2907 4.9489 99.2703 4.99713C99.2499 5.04535 99.2203 5.08909 99.183 5.12586C99.1457 5.16263 99.1015 5.19169 99.053 5.2114C99.0044 5.23111 98.9525 5.24108 98.9001 5.24074C98.8205 5.24073 98.7427 5.21706 98.6765 5.17275C98.6104 5.12843 98.5589 5.06547 98.5287 4.99187C98.4984 4.91826 98.4908 4.83733 98.5067 4.75937C98.5226 4.68141 98.5614 4.60994 98.618 4.55404C98.6747 4.49814 98.7467 4.46035 98.825 4.44545C98.9032 4.43055 98.9841 4.43923 99.0574 4.47038C99.1307 4.50153 99.193 4.55375 99.2365 4.62039Z" fill="#0F4DFF"/>
<path d="M99.6047 3.85498C99.5403 3.8991 99.4642 3.92321 99.3861 3.92428C99.2803 3.92487 99.1786 3.88361 99.1033 3.80932C99.028 3.73503 98.9853 3.63392 98.9846 3.5282C98.9847 3.45016 99.0078 3.37389 99.0511 3.30896C99.0945 3.24403 99.156 3.19334 99.2281 3.16327C99.3002 3.13321 99.3796 3.1251 99.4562 3.13998C99.5329 3.15485 99.6035 3.19203 99.6591 3.24686C99.7147 3.30168 99.7528 3.3717 99.7686 3.44811C99.7845 3.52452 99.7774 3.60391 99.7483 3.6763C99.7191 3.7487 99.6691 3.81086 99.6047 3.85498Z" fill="#0F4DFF"/>
<path d="M100.834 3.15451C100.77 3.19866 100.694 3.22278 100.616 3.22385C100.51 3.22455 100.408 3.18342 100.333 3.10926C100.258 3.03509 100.215 2.9341 100.214 2.82847C100.214 2.7504 100.237 2.67406 100.28 2.60904C100.324 2.54401 100.385 2.49322 100.457 2.46305C100.529 2.43288 100.609 2.42468 100.685 2.43947C100.762 2.45426 100.833 2.49139 100.888 2.54619C100.944 2.60099 100.982 2.671 100.998 2.74743C101.014 2.82386 101.007 2.90329 100.978 2.97572C100.949 3.04815 100.899 3.11036 100.834 3.15451Z" fill="#0F4DFF"/>
<path d="M102.244 3.41434C102.176 3.46059 102.096 3.48577 102.014 3.4867V3.48739C101.959 3.48768 101.905 3.47713 101.854 3.45635C101.803 3.43557 101.756 3.40497 101.717 3.36628C101.678 3.3276 101.647 3.28159 101.626 3.2309C101.605 3.1802 101.594 3.12582 101.593 3.07085C101.593 2.9888 101.618 2.90858 101.663 2.8403C101.709 2.77202 101.773 2.71872 101.849 2.68711C101.925 2.65551 102.008 2.647 102.089 2.66267C102.17 2.67834 102.244 2.71748 102.302 2.77517C102.361 2.83285 102.401 2.90651 102.417 2.98687C102.434 3.06722 102.426 3.15069 102.395 3.22675C102.365 3.30282 102.312 3.36808 102.244 3.41434Z" fill="#0F4DFF"/>
<path d="M103.158 4.48822C103.09 4.53477 103.01 4.56025 102.928 4.56147V4.56217C102.873 4.56253 102.818 4.55199 102.767 4.53115C102.715 4.51031 102.669 4.47957 102.629 4.4407C102.59 4.40183 102.559 4.35559 102.537 4.30462C102.516 4.25366 102.505 4.19897 102.504 4.14369C102.505 4.06149 102.529 3.98116 102.575 3.9128C102.62 3.84444 102.685 3.7911 102.761 3.75946C102.837 3.72782 102.921 3.7193 103.002 3.73498C103.082 3.75065 103.157 3.78981 103.215 3.84755C103.274 3.90529 103.314 3.97903 103.331 4.0595C103.347 4.13998 103.34 4.22361 103.309 4.29989C103.279 4.37616 103.226 4.44168 103.158 4.48822Z" fill="#0F4DFF"/>
<path d="M101.478 5.21265C101.515 5.19673 101.557 5.19217 101.597 5.19951V5.2002C101.654 5.21299 101.703 5.24767 101.735 5.29667C101.766 5.34566 101.776 5.40499 101.764 5.46167C101.753 5.50126 101.731 5.53691 101.701 5.56425C101.67 5.59159 101.632 5.60945 101.591 5.61563C101.551 5.62181 101.509 5.61606 101.472 5.59906C101.435 5.58207 101.403 5.55457 101.381 5.51994C101.359 5.4853 101.348 5.44503 101.348 5.40405C101.349 5.36306 101.362 5.32313 101.385 5.28914C101.407 5.25515 101.44 5.22857 101.478 5.21265Z" fill="#0F4DFF"/>
<path d="M100.69 5.39733C100.727 5.38153 100.768 5.37696 100.808 5.38419V5.38489C100.836 5.39104 100.862 5.40262 100.886 5.41896C100.909 5.4353 100.929 5.45607 100.944 5.4801C100.96 5.50413 100.97 5.53094 100.975 5.55899C100.98 5.58704 100.979 5.61579 100.973 5.64359C100.963 5.68281 100.941 5.71812 100.911 5.74523C100.88 5.77234 100.843 5.79006 100.803 5.79622C100.763 5.80239 100.721 5.79672 100.684 5.77993C100.647 5.76315 100.616 5.73596 100.594 5.70169C100.573 5.66742 100.561 5.62755 100.562 5.58696C100.562 5.54638 100.575 5.50683 100.597 5.47315C100.62 5.43947 100.652 5.41312 100.69 5.39733Z" fill="#0F4DFF"/>
<path d="M100.102 4.85962C100.137 4.845 100.175 4.84072 100.211 4.84729V4.84798C100.263 4.85959 100.308 4.89121 100.337 4.93592C100.365 4.98063 100.375 5.03481 100.364 5.08662C100.354 5.12275 100.334 5.15527 100.306 5.18024C100.278 5.2052 100.244 5.22152 100.207 5.2272C100.17 5.23288 100.132 5.22767 100.098 5.21222C100.064 5.19677 100.035 5.17174 100.015 5.14019C99.9948 5.10863 99.9843 5.07192 99.9848 5.03453C99.9852 4.99714 99.9966 4.96069 100.017 4.92963C100.038 4.89857 100.068 4.87424 100.102 4.85962Z" fill="#0F4DFF"/>
<path d="M100.417 4.46581C100.383 4.47969 100.347 4.48351 100.311 4.47681V4.4775C100.261 4.46597 100.218 4.43508 100.19 4.39161C100.163 4.34814 100.154 4.29565 100.166 4.24565C100.175 4.21069 100.195 4.17924 100.222 4.15514C100.249 4.13104 100.282 4.11533 100.318 4.10995C100.354 4.10458 100.39 4.10975 100.423 4.12485C100.456 4.13995 100.484 4.16431 100.503 4.19496C100.523 4.2256 100.532 4.2612 100.532 4.29739C100.531 4.33358 100.52 4.36879 100.499 4.3987C100.479 4.42862 100.45 4.45194 100.417 4.46581Z" fill="#0F4DFF"/>
<path d="M101.208 4.28796C101.174 4.3024 101.136 4.3065 101.099 4.29974V4.30043C101.047 4.28851 101.003 4.25673 100.974 4.21199C100.946 4.16725 100.937 4.11316 100.948 4.06151C100.958 4.02542 100.978 3.99292 101.005 3.96798C101.033 3.94304 101.068 3.92674 101.105 3.92109C101.142 3.91543 101.179 3.92065 101.213 3.93612C101.247 3.95159 101.276 3.97664 101.296 4.00819C101.316 4.03974 101.327 4.07643 101.326 4.11376C101.325 4.1511 101.314 4.18746 101.293 4.2184C101.272 4.24934 101.243 4.27351 101.208 4.28796Z" fill="#0F4DFF"/>
<path d="M101.803 4.84807C101.767 4.86301 101.727 4.86716 101.689 4.86002V4.86071C101.662 4.85468 101.637 4.84341 101.614 4.82757C101.592 4.81173 101.573 4.79163 101.559 4.76841C101.544 4.7452 101.534 4.71933 101.53 4.69232C101.525 4.6653 101.526 4.63767 101.532 4.611C101.543 4.57348 101.563 4.53973 101.593 4.51389C101.622 4.48806 101.658 4.47125 101.696 4.46552C101.735 4.45979 101.774 4.4654 101.809 4.48165C101.845 4.4979 101.875 4.52409 101.895 4.55702C101.916 4.58995 101.927 4.62819 101.926 4.66706C101.925 4.70594 101.913 4.74376 101.891 4.77591C101.869 4.80806 101.838 4.83313 101.803 4.84807Z" fill="#0F4DFF"/>
</svg>
