<svg width="218" height="214" viewBox="0 0 218 214" fill="none" xmlns="http://www.w3.org/2000/svg">
<ellipse cx="109" cy="106.556" rx="109" ry="106.556" fill="black"/>
<path fill-rule="evenodd" clip-rule="evenodd" d="M139.458 84.3332H145.25C151.621 84.3332 156.833 89.5457 156.833 95.9165V153.833C156.833 160.204 151.621 165.417 145.25 165.417H75.7498C69.379 165.417 64.1665 160.204 64.1665 153.833V95.9165C64.1665 89.5457 69.379 84.3332 75.7498 84.3332H81.5415V72.7498C81.5415 56.7648 94.5148 43.7915 110.5 43.7915C126.485 43.7915 139.458 56.7648 139.458 72.7498V84.3332ZM110.5 55.3748C100.886 55.3748 93.1248 63.1357 93.1248 72.7498V84.3332H127.875V72.7498C127.875 63.1357 120.114 55.3748 110.5 55.3748ZM75.7498 153.833V95.9165H145.25V153.833H75.7498ZM122.083 124.875C122.083 131.246 116.871 136.458 110.5 136.458C104.129 136.458 98.9165 131.246 98.9165 124.875C98.9165 118.504 104.129 113.292 110.5 113.292C116.871 113.292 122.083 118.504 122.083 124.875Z" fill="#0F4DFF"/>
</svg>
