<svg width="28" height="28" viewBox="0 0 28 28" fill="none" xmlns="http://www.w3.org/2000/svg">
<path d="M13.125 4.375C11.9937 4.375 11.0298 5.11328 10.6641 6.125H3.5V7.875H10.6641C11.0298 8.88672 11.9937 9.625 13.125 9.625C14.2563 9.625 15.2202 8.88672 15.5859 7.875H24.5V6.125H15.5859C15.2202 5.11328 14.2563 4.375 13.125 4.375ZM13.125 6.125C13.6172 6.125 14 6.50781 14 7C14 7.49219 13.6172 7.875 13.125 7.875C12.6328 7.875 12.25 7.49219 12.25 7C12.25 6.50781 12.6328 6.125 13.125 6.125ZM19.25 11.375C18.1187 11.375 17.1548 12.1133 16.7891 13.125H3.5V14.875H16.7891C17.1548 15.8867 18.1187 16.625 19.25 16.625C20.3813 16.625 21.3452 15.8867 21.7109 14.875H24.5V13.125H21.7109C21.3452 12.1133 20.3813 11.375 19.25 11.375ZM19.25 13.125C19.7422 13.125 20.125 13.5078 20.125 14C20.125 14.4922 19.7422 14.875 19.25 14.875C18.7578 14.875 18.375 14.4922 18.375 14C18.375 13.5078 18.7578 13.125 19.25 13.125ZM9.625 18.375C8.49365 18.375 7.52979 19.1133 7.16406 20.125H3.5V21.875H7.16406C7.52979 22.8867 8.49365 23.625 9.625 23.625C10.7563 23.625 11.7202 22.8867 12.0859 21.875H24.5V20.125H12.0859C11.7202 19.1133 10.7563 18.375 9.625 18.375ZM9.625 20.125C10.1172 20.125 10.5 20.5078 10.5 21C10.5 21.4922 10.1172 21.875 9.625 21.875C9.13281 21.875 8.75 21.4922 8.75 21C8.75 20.5078 9.13281 20.125 9.625 20.125Z" fill="#9096B4"/>
</svg>
