<svg width="17" height="17" viewBox="0 0 17 17" fill="none" xmlns="http://www.w3.org/2000/svg">
<path fill-rule="evenodd" clip-rule="evenodd" d="M10.5786 6.03409H15.4545C16.3045 6.03409 17 6.72955 17 7.57955V9.125C17 9.32591 16.9614 9.51136 16.8918 9.68909L14.5582 15.1368C14.3264 15.6932 13.7777 16.0795 13.1364 16.0795H6.18182C5.33182 16.0795 4.63636 15.3841 4.63636 14.5341V6.80682C4.63636 6.38182 4.80636 5.99545 5.09227 5.71727L10.1768 0.625L10.9959 1.43636C11.2045 1.645 11.3359 1.93864 11.3359 2.25545L11.3127 2.50273L10.5786 6.03409ZM3.09091 6.80682H0V16.0795H3.09091V6.80682Z" fill="white"/>
</svg>
