<svg width="16" height="15" viewBox="0 0 16 15" fill="none" xmlns="http://www.w3.org/2000/svg">
<path d="M8 0C3.86426 0 0.5 3.36426 0.5 7.5C0.5 11.6357 3.86426 15 8 15C12.1357 15 15.5 11.6357 15.5 7.5C15.5 3.36426 12.1357 0 8 0ZM8 1.25C11.4595 1.25 14.25 4.04053 14.25 7.5C14.25 10.9595 11.4595 13.75 8 13.75C4.54053 13.75 1.75 10.9595 1.75 7.5C1.75 4.04053 4.54053 1.25 8 1.25ZM5.5 3.20312V11.7969L6.4375 11.25L12.0625 8.04688L13 7.5L12.0625 6.95312L6.4375 3.75L5.5 3.20312ZM6.75 5.35156L10.4805 7.5L6.75 9.64844V5.35156Z" fill="white"/>
</svg>
