<svg width="14" height="15" viewBox="0 0 14 15" fill="none" xmlns="http://www.w3.org/2000/svg">
<path fill-rule="evenodd" clip-rule="evenodd" d="M9.30195 9.00666H9.91694L13.8015 12.8895L12.6416 14.0466L8.74924 10.1715V9.55803L8.53905 9.34059C7.65159 10.1016 6.49945 10.5598 5.24611 10.5598C2.45139 10.5598 0.186035 8.29998 0.186035 5.51208C0.186035 2.72418 2.45139 0.464355 5.24611 0.464355C8.04082 0.464355 10.3062 2.72418 10.3062 5.51208C10.3062 6.76237 9.84688 7.9117 9.08398 8.79699L9.30195 9.00666ZM1.74292 5.51202C1.74292 7.44569 3.30765 9.0066 5.24605 9.0066C7.18444 9.0066 8.74917 7.44569 8.74917 5.51202C8.74917 3.57835 7.18444 2.01744 5.24605 2.01744C3.30765 2.01744 1.74292 3.57835 1.74292 5.51202Z" fill="#D6BBDB"/>
</svg>
